# xmcd
#
# Track frame offsets: 
#        150
#        2169
#        19507
#        34526
#        62336
#        85560
#        109648
#        130562
#        150482
#        171863
#        189833
#        209879
#        226935
#        247655
#        284892
#        304966
#        319820
#
# Disc length: 4702 seconds
#
# Revision: 0
# Processed by: cddbd v1.5.2PL0 Copyright (c) Steve Scherf et al.
# Submitted via: ExactAudioCopy v0.95b4
#
DISCID=d0125c11
DTITLE=Cowboy - Reunion 2010
DYEAR=2010
DGENRE=Country
TTITLE0=Introduction
TTITLE1=Livin' In The Country
TTITLE2=Satisfy
TTITLE3=Everything Here
TTITLE4=Nobody Else's Man
TTITLE5=It's Time
TTITLE6=Message In The Wind
TTITLE7=Houston
TTITLE8=Pretty Friend
TTITLE9=I Will Be There
TTITLE10=A Patch and A Painkiller
TTITLE11=Use Your Situation
TTITLE12=All My Friends
TTITLE13=River To The Sea
TTITLE14=Please Be With Me
TTITLE15=Takin' It All The Way
TTITLE16=Time Will Take Us
EXTD=
EXTT0=
EXTT1=
EXTT2=
EXTT3=
EXTT4=
EXTT5=
EXTT6=
EXTT7=
EXTT8=
EXTT9=
EXTT10=
EXTT11=
EXTT12=
EXTT13=
EXTT14=
EXTT15=
EXTT16=
PLAYORDER=
